<mxfile host="Electron" modified="2024-04-14T17:05:28.607Z" agent="Mozilla/5.0 (X11; Linux x86_64) AppleWebKit/537.36 (KHTML, like Gecko) draw.io/24.1.0 Chrome/120.0.6099.109 Electron/28.1.0 Safari/537.36" etag="i_eCIaIcL2Es2wLGNiwA" version="24.1.0" type="device">
  <diagram name="Page-1" id="4mnnEqeC0T2L56igqeZn">
    <mxGraphModel dx="544" dy="302" grid="1" gridSize="10" guides="1" tooltips="1" connect="1" arrows="1" fold="1" page="1" pageScale="1" pageWidth="850" pageHeight="1100" math="0" shadow="0">
      <root>
        <mxCell id="0" />
        <mxCell id="1" parent="0" />
        <mxCell id="qCU14yPaNZpBJ_KPHPik-10" style="rounded=0;orthogonalLoop=1;jettySize=auto;html=1;exitX=1;exitY=0.25;exitDx=0;exitDy=0;entryX=0;entryY=0.25;entryDx=0;entryDy=0;fillColor=#d5e8d4;strokeColor=#82b366;" parent="1" source="qCU14yPaNZpBJ_KPHPik-2" target="Sz9hukelKL4jgiGdZPIV-1" edge="1">
          <mxGeometry relative="1" as="geometry">
            <mxPoint x="297.57359312880453" y="208.78679656440227" as="targetPoint" />
          </mxGeometry>
        </mxCell>
        <mxCell id="qCU14yPaNZpBJ_KPHPik-12" value="one" style="edgeLabel;html=1;align=center;verticalAlign=middle;resizable=0;points=[];fontFamily=Courier New;" parent="qCU14yPaNZpBJ_KPHPik-10" vertex="1" connectable="0">
          <mxGeometry x="-0.3026" y="-2" relative="1" as="geometry">
            <mxPoint x="13" y="-3" as="offset" />
          </mxGeometry>
        </mxCell>
        <mxCell id="qCU14yPaNZpBJ_KPHPik-11" style="rounded=0;orthogonalLoop=1;jettySize=auto;html=1;exitX=1;exitY=0.75;exitDx=0;exitDy=0;entryX=0;entryY=0.75;entryDx=0;entryDy=0;fillColor=#ffe6cc;strokeColor=#d79b00;" parent="1" source="qCU14yPaNZpBJ_KPHPik-2" target="Sz9hukelKL4jgiGdZPIV-1" edge="1">
          <mxGeometry relative="1" as="geometry">
            <mxPoint x="297.57359312880453" y="251.21320343559762" as="targetPoint" />
          </mxGeometry>
        </mxCell>
        <mxCell id="qCU14yPaNZpBJ_KPHPik-13" value="two" style="edgeLabel;html=1;align=center;verticalAlign=middle;resizable=0;points=[];fontFamily=Courier New;" parent="qCU14yPaNZpBJ_KPHPik-11" vertex="1" connectable="0">
          <mxGeometry x="-0.1162" y="2" relative="1" as="geometry">
            <mxPoint x="4" y="2" as="offset" />
          </mxGeometry>
        </mxCell>
        <mxCell id="qCU14yPaNZpBJ_KPHPik-2" value="Load generator" style="rounded=1;whiteSpace=wrap;html=1;" parent="1" vertex="1">
          <mxGeometry x="80" y="200" width="120" height="60" as="geometry" />
        </mxCell>
        <mxCell id="qCU14yPaNZpBJ_KPHPik-8" value="Service &lt;i&gt;epsilon&lt;sub&gt;1&lt;/sub&gt;&lt;/i&gt;" style="ellipse;whiteSpace=wrap;html=1;fillColor=#dae8fc;strokeColor=#6c8ebf;" parent="1" vertex="1">
          <mxGeometry x="500" y="270" width="120" height="60" as="geometry" />
        </mxCell>
        <mxCell id="qCU14yPaNZpBJ_KPHPik-9" value="Service &lt;i&gt;epsilon&lt;span style=&quot;font-size: 10px;&quot;&gt;&lt;sub&gt;2&lt;/sub&gt;&lt;/span&gt;&lt;/i&gt;" style="ellipse;whiteSpace=wrap;html=1;fillColor=#f8cecc;strokeColor=#b85450;" parent="1" vertex="1">
          <mxGeometry x="500" y="480" width="120" height="60" as="geometry" />
        </mxCell>
        <mxCell id="Sz9hukelKL4jgiGdZPIV-16" style="rounded=0;orthogonalLoop=1;jettySize=auto;html=1;exitX=1;exitY=0.25;exitDx=0;exitDy=0;entryX=0.5;entryY=0;entryDx=0;entryDy=0;fillColor=#d5e8d4;strokeColor=#82b366;" parent="1" source="Sz9hukelKL4jgiGdZPIV-1" target="qCU14yPaNZpBJ_KPHPik-8" edge="1">
          <mxGeometry relative="1" as="geometry" />
        </mxCell>
        <mxCell id="Sz9hukelKL4jgiGdZPIV-17" value="uuid" style="edgeLabel;html=1;align=center;verticalAlign=middle;resizable=0;points=[];fontFamily=Courier New;rotation=20;" parent="Sz9hukelKL4jgiGdZPIV-16" vertex="1" connectable="0">
          <mxGeometry x="-0.0006" y="2" relative="1" as="geometry">
            <mxPoint x="-31" y="-11" as="offset" />
          </mxGeometry>
        </mxCell>
        <mxCell id="Sz9hukelKL4jgiGdZPIV-18" style="rounded=0;orthogonalLoop=1;jettySize=auto;html=1;exitX=1;exitY=0.75;exitDx=0;exitDy=0;entryX=0;entryY=0.5;entryDx=0;entryDy=0;fillColor=#ffe6cc;strokeColor=#d79b00;" parent="1" source="Sz9hukelKL4jgiGdZPIV-1" target="qCU14yPaNZpBJ_KPHPik-8" edge="1">
          <mxGeometry relative="1" as="geometry" />
        </mxCell>
        <mxCell id="Sz9hukelKL4jgiGdZPIV-19" value="int" style="edgeLabel;html=1;align=center;verticalAlign=middle;resizable=0;points=[];fontFamily=Courier New;rotation=35;" parent="Sz9hukelKL4jgiGdZPIV-18" vertex="1" connectable="0">
          <mxGeometry x="-0.162" y="-1" relative="1" as="geometry">
            <mxPoint x="9" y="6" as="offset" />
          </mxGeometry>
        </mxCell>
        <mxCell id="WUKivsFN8xzBb_68dq5P-5" style="rounded=0;orthogonalLoop=1;jettySize=auto;html=1;exitX=1;exitY=0.75;exitDx=0;exitDy=0;entryX=0;entryY=0;entryDx=0;entryDy=0;fillColor=#ffe6cc;strokeColor=#d79b00;" parent="1" source="Sz9hukelKL4jgiGdZPIV-1" target="qCU14yPaNZpBJ_KPHPik-8" edge="1">
          <mxGeometry relative="1" as="geometry" />
        </mxCell>
        <mxCell id="WUKivsFN8xzBb_68dq5P-6" value="&lt;font face=&quot;Courier New&quot;&gt;uuid&lt;/font&gt;" style="edgeLabel;html=1;align=center;verticalAlign=middle;resizable=0;points=[];rotation=20;" parent="WUKivsFN8xzBb_68dq5P-5" vertex="1" connectable="0">
          <mxGeometry x="-0.0622" y="-1" relative="1" as="geometry">
            <mxPoint x="1" y="-2" as="offset" />
          </mxGeometry>
        </mxCell>
        <mxCell id="Sz9hukelKL4jgiGdZPIV-1" value="Service&amp;nbsp;&lt;i&gt;alpha&lt;/i&gt;" style="rounded=1;whiteSpace=wrap;html=1;fillColor=#dae8fc;strokeColor=#6c8ebf;" parent="1" vertex="1">
          <mxGeometry x="300" y="200" width="120" height="60" as="geometry" />
        </mxCell>
        <mxCell id="Sz9hukelKL4jgiGdZPIV-4" style="rounded=0;orthogonalLoop=1;jettySize=auto;html=1;exitX=1;exitY=0.25;exitDx=0;exitDy=0;entryX=0;entryY=0.25;entryDx=0;entryDy=0;fillColor=#d5e8d4;strokeColor=#82b366;" parent="1" source="Sz9hukelKL4jgiGdZPIV-8" target="Sz9hukelKL4jgiGdZPIV-9" edge="1">
          <mxGeometry relative="1" as="geometry">
            <mxPoint x="297.57359312880453" y="348.78679656440227" as="targetPoint" />
          </mxGeometry>
        </mxCell>
        <mxCell id="Sz9hukelKL4jgiGdZPIV-5" value="one" style="edgeLabel;html=1;align=center;verticalAlign=middle;resizable=0;points=[];fontFamily=Courier New;" parent="Sz9hukelKL4jgiGdZPIV-4" vertex="1" connectable="0">
          <mxGeometry x="-0.3026" y="-2" relative="1" as="geometry">
            <mxPoint x="13" y="-3" as="offset" />
          </mxGeometry>
        </mxCell>
        <mxCell id="Sz9hukelKL4jgiGdZPIV-6" style="rounded=0;orthogonalLoop=1;jettySize=auto;html=1;exitX=1;exitY=0.75;exitDx=0;exitDy=0;entryX=0;entryY=0.75;entryDx=0;entryDy=0;fillColor=#ffe6cc;strokeColor=#d79b00;" parent="1" source="Sz9hukelKL4jgiGdZPIV-8" target="Sz9hukelKL4jgiGdZPIV-9" edge="1">
          <mxGeometry relative="1" as="geometry">
            <mxPoint x="297.57359312880453" y="391.2132034355976" as="targetPoint" />
          </mxGeometry>
        </mxCell>
        <mxCell id="Sz9hukelKL4jgiGdZPIV-7" value="two" style="edgeLabel;html=1;align=center;verticalAlign=middle;resizable=0;points=[];fontFamily=Courier New;" parent="Sz9hukelKL4jgiGdZPIV-6" vertex="1" connectable="0">
          <mxGeometry x="-0.1162" y="2" relative="1" as="geometry">
            <mxPoint x="4" y="2" as="offset" />
          </mxGeometry>
        </mxCell>
        <mxCell id="Sz9hukelKL4jgiGdZPIV-8" value="Load generator" style="rounded=1;whiteSpace=wrap;html=1;" parent="1" vertex="1">
          <mxGeometry x="80" y="340" width="120" height="60" as="geometry" />
        </mxCell>
        <mxCell id="Sz9hukelKL4jgiGdZPIV-20" style="rounded=0;orthogonalLoop=1;jettySize=auto;html=1;exitX=1;exitY=0.25;exitDx=0;exitDy=0;entryX=0;entryY=0.5;entryDx=0;entryDy=0;fillColor=#d5e8d4;strokeColor=#82b366;" parent="1" source="Sz9hukelKL4jgiGdZPIV-9" target="qCU14yPaNZpBJ_KPHPik-8" edge="1">
          <mxGeometry relative="1" as="geometry" />
        </mxCell>
        <mxCell id="Sz9hukelKL4jgiGdZPIV-21" value="int" style="edgeLabel;html=1;align=center;verticalAlign=middle;resizable=0;points=[];fontFamily=Courier New;rotation=-35;" parent="Sz9hukelKL4jgiGdZPIV-20" vertex="1" connectable="0">
          <mxGeometry x="-0.0732" relative="1" as="geometry">
            <mxPoint x="13" y="-10" as="offset" />
          </mxGeometry>
        </mxCell>
        <mxCell id="Sz9hukelKL4jgiGdZPIV-22" style="rounded=0;orthogonalLoop=1;jettySize=auto;html=1;exitX=1;exitY=0.75;exitDx=0;exitDy=0;entryX=0.5;entryY=1;entryDx=0;entryDy=0;fillColor=#ffe6cc;strokeColor=#d79b00;" parent="1" source="Sz9hukelKL4jgiGdZPIV-9" target="qCU14yPaNZpBJ_KPHPik-8" edge="1">
          <mxGeometry relative="1" as="geometry" />
        </mxCell>
        <mxCell id="Sz9hukelKL4jgiGdZPIV-23" value="int" style="edgeLabel;html=1;align=center;verticalAlign=middle;resizable=0;points=[];fontFamily=Courier New;rotation=-23.1;" parent="Sz9hukelKL4jgiGdZPIV-22" vertex="1" connectable="0">
          <mxGeometry x="-0.1523" y="-2" relative="1" as="geometry">
            <mxPoint x="1" y="-1" as="offset" />
          </mxGeometry>
        </mxCell>
        <mxCell id="WUKivsFN8xzBb_68dq5P-1" style="rounded=0;orthogonalLoop=1;jettySize=auto;html=1;exitX=1;exitY=0.75;exitDx=0;exitDy=0;entryX=0;entryY=1;entryDx=0;entryDy=0;fillColor=#ffe6cc;strokeColor=#d79b00;" parent="1" source="Sz9hukelKL4jgiGdZPIV-9" target="qCU14yPaNZpBJ_KPHPik-8" edge="1">
          <mxGeometry relative="1" as="geometry" />
        </mxCell>
        <mxCell id="WUKivsFN8xzBb_68dq5P-2" value="int" style="edgeLabel;html=1;align=center;verticalAlign=middle;resizable=0;points=[];fontFamily=Courier New;rotation=-34;" parent="WUKivsFN8xzBb_68dq5P-1" vertex="1" connectable="0">
          <mxGeometry x="-0.0329" y="-1" relative="1" as="geometry">
            <mxPoint x="7" y="-8" as="offset" />
          </mxGeometry>
        </mxCell>
        <mxCell id="Sz9hukelKL4jgiGdZPIV-9" value="Service&amp;nbsp;&lt;i&gt;beta&lt;/i&gt;" style="rounded=1;whiteSpace=wrap;html=1;fillColor=#dae8fc;strokeColor=#6c8ebf;" parent="1" vertex="1">
          <mxGeometry x="300" y="340" width="120" height="60" as="geometry" />
        </mxCell>
        <mxCell id="Sz9hukelKL4jgiGdZPIV-10" style="rounded=0;orthogonalLoop=1;jettySize=auto;html=1;exitX=1;exitY=0.25;exitDx=0;exitDy=0;entryX=0;entryY=0.25;entryDx=0;entryDy=0;fillColor=#d5e8d4;strokeColor=#82b366;" parent="1" source="Sz9hukelKL4jgiGdZPIV-14" target="Sz9hukelKL4jgiGdZPIV-15" edge="1">
          <mxGeometry relative="1" as="geometry">
            <mxPoint x="297.57359312880453" y="488.78679656440227" as="targetPoint" />
          </mxGeometry>
        </mxCell>
        <mxCell id="Sz9hukelKL4jgiGdZPIV-11" value="one" style="edgeLabel;html=1;align=center;verticalAlign=middle;resizable=0;points=[];fontFamily=Courier New;" parent="Sz9hukelKL4jgiGdZPIV-10" vertex="1" connectable="0">
          <mxGeometry x="-0.3026" y="-2" relative="1" as="geometry">
            <mxPoint x="13" y="-3" as="offset" />
          </mxGeometry>
        </mxCell>
        <mxCell id="Sz9hukelKL4jgiGdZPIV-12" style="rounded=0;orthogonalLoop=1;jettySize=auto;html=1;exitX=1;exitY=0.75;exitDx=0;exitDy=0;entryX=0;entryY=0.75;entryDx=0;entryDy=0;fillColor=#ffe6cc;strokeColor=#d79b00;" parent="1" source="Sz9hukelKL4jgiGdZPIV-14" target="Sz9hukelKL4jgiGdZPIV-15" edge="1">
          <mxGeometry relative="1" as="geometry">
            <mxPoint x="297.57359312880453" y="531.2132034355976" as="targetPoint" />
          </mxGeometry>
        </mxCell>
        <mxCell id="Sz9hukelKL4jgiGdZPIV-13" value="two" style="edgeLabel;html=1;align=center;verticalAlign=middle;resizable=0;points=[];fontFamily=Courier New;" parent="Sz9hukelKL4jgiGdZPIV-12" vertex="1" connectable="0">
          <mxGeometry x="-0.1162" y="2" relative="1" as="geometry">
            <mxPoint x="4" y="2" as="offset" />
          </mxGeometry>
        </mxCell>
        <mxCell id="Sz9hukelKL4jgiGdZPIV-14" value="Load generator" style="rounded=1;whiteSpace=wrap;html=1;" parent="1" vertex="1">
          <mxGeometry x="80" y="480" width="120" height="60" as="geometry" />
        </mxCell>
        <mxCell id="Sz9hukelKL4jgiGdZPIV-24" style="rounded=0;orthogonalLoop=1;jettySize=auto;html=1;exitX=1;exitY=0.25;exitDx=0;exitDy=0;entryX=0;entryY=0;entryDx=0;entryDy=0;fillColor=#d5e8d4;strokeColor=#82b366;" parent="1" source="Sz9hukelKL4jgiGdZPIV-15" target="qCU14yPaNZpBJ_KPHPik-9" edge="1">
          <mxGeometry relative="1" as="geometry" />
        </mxCell>
        <mxCell id="Sz9hukelKL4jgiGdZPIV-25" value="uuid" style="edgeLabel;html=1;align=center;verticalAlign=middle;resizable=0;points=[];fontFamily=Courier New;rotation=-5;" parent="Sz9hukelKL4jgiGdZPIV-24" vertex="1" connectable="0">
          <mxGeometry x="-0.1639" relative="1" as="geometry">
            <mxPoint x="2" y="-1" as="offset" />
          </mxGeometry>
        </mxCell>
        <mxCell id="Sz9hukelKL4jgiGdZPIV-26" style="rounded=0;orthogonalLoop=1;jettySize=auto;html=1;exitX=1;exitY=0.75;exitDx=0;exitDy=0;entryX=0;entryY=0.5;entryDx=0;entryDy=0;fillColor=#ffe6cc;strokeColor=#d79b00;" parent="1" source="Sz9hukelKL4jgiGdZPIV-15" target="qCU14yPaNZpBJ_KPHPik-9" edge="1">
          <mxGeometry relative="1" as="geometry" />
        </mxCell>
        <mxCell id="Sz9hukelKL4jgiGdZPIV-27" value="uuid" style="edgeLabel;html=1;align=center;verticalAlign=middle;resizable=0;points=[];fontFamily=Courier New;rotation=-12;" parent="Sz9hukelKL4jgiGdZPIV-26" vertex="1" connectable="0">
          <mxGeometry x="-0.0363" relative="1" as="geometry">
            <mxPoint x="6" y="-2" as="offset" />
          </mxGeometry>
        </mxCell>
        <mxCell id="WUKivsFN8xzBb_68dq5P-3" style="rounded=0;orthogonalLoop=1;jettySize=auto;html=1;exitX=1;exitY=0.75;exitDx=0;exitDy=0;entryX=0;entryY=1;entryDx=0;entryDy=0;fillColor=#ffe6cc;strokeColor=#d79b00;" parent="1" source="Sz9hukelKL4jgiGdZPIV-15" target="qCU14yPaNZpBJ_KPHPik-9" edge="1">
          <mxGeometry relative="1" as="geometry" />
        </mxCell>
        <mxCell id="WUKivsFN8xzBb_68dq5P-4" value="int" style="edgeLabel;html=1;align=center;verticalAlign=middle;resizable=0;points=[];fontFamily=Courier New;rotation=2;" parent="WUKivsFN8xzBb_68dq5P-3" vertex="1" connectable="0">
          <mxGeometry x="-0.3959" relative="1" as="geometry">
            <mxPoint x="17" y="3" as="offset" />
          </mxGeometry>
        </mxCell>
        <mxCell id="Sz9hukelKL4jgiGdZPIV-15" value="Service&amp;nbsp;&lt;i&gt;gamma&lt;/i&gt;" style="rounded=1;whiteSpace=wrap;html=1;fillColor=#dae8fc;strokeColor=#6c8ebf;" parent="1" vertex="1">
          <mxGeometry x="300" y="480" width="120" height="60" as="geometry" />
        </mxCell>
      </root>
    </mxGraphModel>
  </diagram>
</mxfile>
